<mxfile host="65bd71144e">
    <diagram id="DEjcxKVxj2POeMgczdvf" name="Page-1">
        <mxGraphModel dx="526" dy="580" grid="1" gridSize="10" guides="1" tooltips="1" connect="1" arrows="1" fold="1" page="1" pageScale="1" pageWidth="827" pageHeight="1169" math="0" shadow="0">
            <root>
                <mxCell id="0"/>
                <mxCell id="1" parent="0"/>
                <mxCell id="9" style="edgeStyle=none;html=1;exitX=0.5;exitY=1;exitDx=0;exitDy=0;exitPerimeter=0;entryX=0.5;entryY=0;entryDx=0;entryDy=0;" parent="1" source="2" target="3" edge="1">
                    <mxGeometry relative="1" as="geometry"/>
                </mxCell>
                <mxCell id="2" value="Start" style="strokeWidth=2;html=1;shape=mxgraph.flowchart.start_1;whiteSpace=wrap;" parent="1" vertex="1">
                    <mxGeometry x="180" y="60" width="100" height="60" as="geometry"/>
                </mxCell>
                <mxCell id="10" style="edgeStyle=none;html=1;exitX=0.5;exitY=1;exitDx=0;exitDy=0;entryX=0.5;entryY=0;entryDx=0;entryDy=0;" parent="1" source="3" target="4" edge="1">
                    <mxGeometry relative="1" as="geometry"/>
                </mxCell>
                <mxCell id="3" value="Get radius and height" style="shape=parallelogram;html=1;strokeWidth=2;perimeter=parallelogramPerimeter;whiteSpace=wrap;rounded=1;arcSize=12;size=0.23;" parent="1" vertex="1">
                    <mxGeometry x="145" y="140" width="170" height="60" as="geometry"/>
                </mxCell>
                <mxCell id="11" style="edgeStyle=none;html=1;exitX=0.5;exitY=1;exitDx=0;exitDy=0;entryX=0.5;entryY=0;entryDx=0;entryDy=0;" parent="1" source="4" target="5" edge="1">
                    <mxGeometry relative="1" as="geometry"/>
                </mxCell>
                <mxCell id="4" value="surface_area =&amp;nbsp;&lt;div class=&quot;lr-fy-eq-elem&quot; style=&quot;display: inline-block ; position: relative ; transition: all 0.05s ease-in-out 0s ; color: rgb(32 , 33 , 36) ; font-family: &amp;#34;stixgeneral&amp;#34; , &amp;#34;georgia&amp;#34; ; background-color: rgb(255 , 255 , 255)&quot;&gt;&lt;div class=&quot;lr-fy-ecl lr-fy-eq-elem&quot; style=&quot;display: inline-block ; position: relative ; transition: all 0.05s ease-in-out 0s ; font-style: italic&quot;&gt;π*&lt;/div&gt;&lt;div class=&quot;lr-fy-eq-elem lr-fy-eq-add&quot; style=&quot;display: inline-block ; position: relative ; transition: all 0.05s ease-in-out 0s ; margin-left: 0.2em&quot;&gt;&lt;/div&gt;&lt;div class=&quot;lr-fy-el lr-fy-eq-elem&quot; style=&quot;display: inline-block ; position: relative ; transition: all 0.05s ease-in-out 0s ; margin: -4px ; padding: 4px ; font-style: italic ; cursor: pointer&quot;&gt;r&lt;/div&gt;&lt;/div&gt;&lt;div class=&quot;lr-fy-eq-elem lr-fy-eq-add&quot; style=&quot;display: inline-block ; position: relative ; transition: all 0.05s ease-in-out 0s ; color: rgb(32 , 33 , 36) ; font-family: &amp;#34;stixgeneral&amp;#34; , &amp;#34;georgia&amp;#34; ; background-color: rgb(255 , 255 , 255) ; margin-left: 0.2em&quot;&gt;&lt;/div&gt;&lt;div class=&quot;lr-fy-eq-elem&quot; style=&quot;display: inline-block ; position: relative ; transition: all 0.05s ease-in-out 0s ; color: rgb(32 , 33 , 36) ; font-family: &amp;#34;stixgeneral&amp;#34; , &amp;#34;georgia&amp;#34; ; background-color: rgb(255 , 255 , 255)&quot;&gt;&lt;div class=&quot;lr-fy-eq-elem lr-fy-eq-add lr-fy-par&quot; style=&quot;display: inline-block ; position: relative ; transition: all 0.05s ease-in-out 0s ; transform: scaley(1.13) ; padding-right: 0.15em&quot;&gt;(&lt;/div&gt;&lt;div class=&quot;lr-fy-eq-elem&quot; style=&quot;display: inline-block ; position: relative ; transition: all 0.05s ease-in-out 0s&quot;&gt;&lt;div class=&quot;lr-fy-el lr-fy-eq-elem&quot; style=&quot;display: inline-block ; position: relative ; transition: all 0.05s ease-in-out 0s ; margin: -4px ; padding: 4px ; font-style: italic ; cursor: pointer&quot;&gt;r&lt;/div&gt;&lt;div class=&quot;lr-fy-eq-elem lr-fy-eq-add&quot; style=&quot;display: inline-block ; position: relative ; transition: all 0.05s ease-in-out 0s ; margin-left: 0.1em ; margin-right: 0.1em&quot;&gt;+&lt;/div&gt;&lt;div class=&quot;lr-fy-eq-elem&quot; style=&quot;display: inline-block ; position: relative ; transition: all 0.05s ease-in-out 0s ; padding: 1px 3px 2px ; border-top: 1px solid black ; margin-top: 1px ; margin-left: 20.6846px&quot;&gt;&lt;div class=&quot;lr-fy-eq-elem&quot; style=&quot;display: inline-block ; position: relative ; transition: all 0.05s ease-in-out 0s&quot;&gt;&lt;div class=&quot;lr-fy-eq-elem&quot; style=&quot;display: inline-block ; position: relative ; transition: all 0.05s ease-in-out 0s&quot;&gt;&lt;div class=&quot;lr-fy-eq-elem&quot; style=&quot;display: inline-block ; position: relative ; transition: all 0.05s ease-in-out 0s&quot;&gt;&lt;div class=&quot;lr-fy-el lr-fy-eq-elem&quot; style=&quot;display: inline-block ; position: relative ; transition: all 0.05s ease-in-out 0s ; margin: -4px ; padding: 4px ; font-style: italic ; cursor: pointer&quot;&gt;h^&lt;/div&gt;&lt;div class=&quot;lr-fy-ecv lr-fy-eq-elem&quot; style=&quot;display: inline-block ; position: relative ; transition: all 0.05s ease-in-out 0s ; font-family: &amp;#34;stixgeneral&amp;#34; , &amp;#34;times&amp;#34; , &amp;#34;times new roman&amp;#34; , serif ; margin-left: 0.15em ; vertical-align: top&quot;&gt;2&lt;/div&gt;&lt;/div&gt;&lt;div class=&quot;lr-fy-eq-elem lr-fy-eq-add&quot; style=&quot;display: inline-block ; position: relative ; transition: all 0.05s ease-in-out 0s ; margin-left: 0.1em ; margin-right: 0.1em&quot;&gt;+&lt;/div&gt;&lt;div class=&quot;lr-fy-eq-elem&quot; style=&quot;display: inline-block ; position: relative ; transition: all 0.05s ease-in-out 0s&quot;&gt;&lt;div class=&quot;lr-fy-el lr-fy-eq-elem&quot; style=&quot;display: inline-block ; position: relative ; transition: all 0.05s ease-in-out 0s ; margin: -4px ; padding: 4px ; font-style: italic ; cursor: pointer&quot;&gt;r^&lt;/div&gt;&lt;div class=&quot;lr-fy-ecv lr-fy-eq-elem&quot; style=&quot;display: inline-block ; position: relative ; transition: all 0.05s ease-in-out 0s ; font-family: &amp;#34;stixgeneral&amp;#34; , &amp;#34;times&amp;#34; , &amp;#34;times new roman&amp;#34; , serif ; margin-left: 0.15em ; vertical-align: top&quot;&gt;2&lt;/div&gt;&lt;/div&gt;&lt;/div&gt;&lt;/div&gt;&lt;div class=&quot;lr-fy-eq-elem lr-fy-eq-add&quot; style=&quot;display: inline-block ; position: absolute ; transition: all 0.05s ease-in-out 0s ; border-top: 1px solid black ; bottom: 22px ; width: 43.5522px ; left: -27.671px ; transform: rotate(-75deg)&quot;&gt;&lt;/div&gt;&lt;div class=&quot;lr-fy-eq-elem lr-fy-eq-add&quot; style=&quot;font-size: 35px ; display: inline-block ; position: absolute ; transition: all 0.05s ease-in-out 0s ; border-top: 2px solid black ; bottom: 11px ; width: 22.7761px ; left: -26.1252px ; transform: rotate(75deg)&quot;&gt;&lt;/div&gt;&lt;/div&gt;&lt;/div&gt;&lt;div class=&quot;lr-fy-eq-elem lr-fy-eq-add lr-fy-par&quot; style=&quot;font-size: 35px ; display: inline-block ; position: relative ; transition: all 0.05s ease-in-out 0s ; transform: scaley(1.13) ; padding-left: 0.15em&quot;&gt;)&lt;/div&gt;&lt;/div&gt;" style="rounded=1;whiteSpace=wrap;html=1;absoluteArcSize=1;arcSize=14;strokeWidth=2;" parent="1" vertex="1">
                    <mxGeometry x="165" y="230" width="125" height="100" as="geometry"/>
                </mxCell>
                <mxCell id="15" style="edgeStyle=none;html=1;exitX=0.5;exitY=1;exitDx=0;exitDy=0;entryX=0.5;entryY=0;entryDx=0;entryDy=0;" edge="1" parent="1" source="5" target="7">
                    <mxGeometry relative="1" as="geometry"/>
                </mxCell>
                <mxCell id="5" value="volume =&amp;nbsp;&lt;div class=&quot;lr-fy-eq-elem&quot; style=&quot;display: inline-block ; position: relative ; transition: all 0.05s ease-in-out 0s ; color: rgb(32 , 33 , 36) ; font-family: &amp;#34;stixgeneral&amp;#34; , &amp;#34;georgia&amp;#34; ; background-color: rgb(255 , 255 , 255)&quot;&gt;&lt;div class=&quot;lr-fy-ecl lr-fy-eq-elem&quot; style=&quot;display: inline-block ; position: relative ; transition: all 0.05s ease-in-out 0s ; font-style: italic&quot;&gt;π*&lt;/div&gt;&lt;div class=&quot;lr-fy-eq-elem lr-fy-eq-add&quot; style=&quot;display: inline-block ; position: relative ; transition: all 0.05s ease-in-out 0s ; margin-left: 0.2em&quot;&gt;&lt;/div&gt;&lt;div class=&quot;lr-fy-eq-elem&quot; style=&quot;display: inline-block ; position: relative ; transition: all 0.05s ease-in-out 0s&quot;&gt;&lt;div class=&quot;lr-fy-el lr-fy-eq-elem&quot; style=&quot;display: inline-block ; position: relative ; transition: all 0.05s ease-in-out 0s ; margin: -4px ; padding: 4px ; font-style: italic ; cursor: pointer&quot;&gt;r^&lt;/div&gt;&lt;div class=&quot;lr-fy-ecv lr-fy-eq-elem&quot; style=&quot;display: inline-block ; position: relative ; transition: all 0.05s ease-in-out 0s ; font-family: &amp;#34;stixgeneral&amp;#34; , &amp;#34;times&amp;#34; , &amp;#34;times new roman&amp;#34; , serif ; margin-left: 0.15em ; vertical-align: top&quot;&gt;2*&lt;/div&gt;&lt;/div&gt;&lt;/div&gt;&lt;div class=&quot;lr-fy-eq-elem lr-fy-eq-add&quot; style=&quot;display: inline-block ; position: relative ; transition: all 0.05s ease-in-out 0s ; color: rgb(32 , 33 , 36) ; font-family: &amp;#34;stixgeneral&amp;#34; , &amp;#34;georgia&amp;#34; ; background-color: rgb(255 , 255 , 255) ; margin-left: 0.2em&quot;&gt;&lt;/div&gt;&lt;div class=&quot;lr-fy-eq-elem&quot; style=&quot;display: inline-block ; position: relative ; transition: all 0.05s ease-in-out 0s ; color: rgb(32 , 33 , 36) ; font-family: &amp;#34;stixgeneral&amp;#34; , &amp;#34;georgia&amp;#34; ; background-color: rgb(255 , 255 , 255) ; vertical-align: middle&quot;&gt;&lt;div class=&quot;lr-fy-el lr-fy-eq-elem&quot; style=&quot;display: inline-block ; position: relative ; transition: all 0.05s ease-in-out 0s ; margin: -4px ; padding: 4px ; font-style: italic ; cursor: pointer&quot;&gt;h&lt;/div&gt;&lt;div class=&quot;lr-fy-eq-add&quot; style=&quot;width: 13.5px ; height: 1px ; background-color: black ; margin-top: 2px ; margin-bottom: 2px&quot;&gt;&lt;/div&gt;&lt;div class=&quot;lr-fy-ecv lr-fy-eq-elem&quot; style=&quot;display: inline-block ; position: relative ; transition: all 0.05s ease-in-out 0s ; font-family: &amp;#34;stixgeneral&amp;#34; , &amp;#34;times&amp;#34; , &amp;#34;times new roman&amp;#34; , serif ; margin-bottom: 8px&quot;&gt;3&lt;/div&gt;&lt;/div&gt;" style="rounded=1;whiteSpace=wrap;html=1;absoluteArcSize=1;arcSize=14;strokeWidth=2;" parent="1" vertex="1">
                    <mxGeometry x="162.5" y="360" width="130" height="100" as="geometry"/>
                </mxCell>
                <mxCell id="14" style="edgeStyle=none;html=1;exitX=0.5;exitY=1;exitDx=0;exitDy=0;entryX=0.5;entryY=0;entryDx=0;entryDy=0;entryPerimeter=0;" parent="1" source="7" target="8" edge="1">
                    <mxGeometry relative="1" as="geometry"/>
                </mxCell>
                <mxCell id="7" value="Show surface_area and volume" style="shape=parallelogram;html=1;strokeWidth=2;perimeter=parallelogramPerimeter;whiteSpace=wrap;rounded=1;arcSize=12;size=0.23;" parent="1" vertex="1">
                    <mxGeometry x="105" y="500" width="250" height="70" as="geometry"/>
                </mxCell>
                <mxCell id="8" value="Stop" style="strokeWidth=2;html=1;shape=mxgraph.flowchart.start_1;whiteSpace=wrap;" parent="1" vertex="1">
                    <mxGeometry x="180" y="620" width="100" height="60" as="geometry"/>
                </mxCell>
            </root>
        </mxGraphModel>
    </diagram>
</mxfile>